<?xml version="1.0" encoding="utf-8"?>
<!-- Generator: Adobe Illustrator 16.0.0, SVG Export Plug-In . SVG Version: 6.00 Build 0)  -->
<!DOCTYPE svg PUBLIC "-//W3C//DTD SVG 1.1//EN" "http://www.w3.org/Graphics/SVG/1.1/DTD/svg11.dtd">
<svg version="1.1" id="Capa_1" xmlns="http://www.w3.org/2000/svg" xmlns:xlink="http://www.w3.org/1999/xlink" x="0px" y="0px"
	 width="1513px" height="183px" viewBox="0 -4.5 1513 183" enable-background="new 0 -4.5 1513 183" xml:space="preserve">
<g>
	<path fill="none" stroke="#000000" stroke-miterlimit="10" d="M870,37h27.872c11,0,19.628,8.5,19.628,19.5v60
		c0,11,6.109,20.5,13.122,20.5S943,137,943,137"/>
</g>
<line fill="none" stroke="#000000" stroke-miterlimit="10" x1="15" y1="37" x2="1494" y2="37"/>
<line fill="none" stroke="#000000" stroke-miterlimit="10" x1="939" y1="137" x2="1144" y2="137"/>
<g>
	<path fill="#F6DB4D" stroke="#020000" stroke-miterlimit="10" d="M240.5,59c0,8.284-6.716,15-15,15h-149c-8.284,0-15-6.716-15-15
		V16c0-8.284,6.716-15,15-15h149c8.284,0,15,6.716,15,15V59z"/>
	<rect x="64.163" y="20.631" fill="none" width="177.709" height="40.678"/>
	<text transform="matrix(1 0 0 1 127.938 44.0605)" font-family="'MyriadPro-Regular'" font-size="33">gist</text>
</g>
<g>
	<rect x="400.5" fill="#FAED9C" stroke="#000000" stroke-miterlimit="10" width="200" height="73"/>
	<rect x="411.873" y="20.631" fill="none" width="199.999" height="40.678"/>
	<text transform="matrix(1 0 0 1 443.4478 44.0605)" font-family="'MyriadPro-Regular'" font-size="33">username</text>
</g>
<g>
	<rect x="732.5" y="1" fill="#FAED9C" stroke="#000000" stroke-miterlimit="10" width="148" height="73"/>
	<rect x="735.056" y="20.631" fill="none" width="145.635" height="40.678"/>
	<text transform="matrix(1 0 0 1 768.7344 44.0605)" font-family="'MyriadPro-Regular'" font-size="33">name</text>
</g>
<g>
	<rect x="1039.5" y="101" fill="#FAED9C" stroke="#000000" stroke-miterlimit="10" width="92" height="73"/>
	<rect x="1053.873" y="120.631" fill="none" width="65.999" height="40.678"/>
	<text transform="matrix(1 0 0 1 1064.2344 144.0605)" font-family="'MyriadPro-Regular'" font-size="33">tag</text>
</g>
<g>
	<path fill="#F6DB4D" stroke="#020000" stroke-miterlimit="10" d="M693.5,58c0,8.284-6.716,15-15,15h-24c-8.284,0-15-6.716-15-15V15
		c0-8.284,6.716-15,15-15h24c8.284,0,15,6.716,15,15V58z"/>
	<rect x="639.872" y="20.631" fill="none" width="54" height="40.678"/>
	<text transform="matrix(1 0 0 1 661.2124 44.0605)" font-family="'MyriadPro-Regular'" font-size="33">/</text>
</g>
<g>
	<path fill="#F6DB4D" stroke="#020000" stroke-miterlimit="10" d="M1002.5,158c0,8.284-6.716,15-15,15h-24c-8.284,0-15-6.716-15-15
		v-43c0-8.284,6.716-15,15-15h24c8.284,0,15,6.716,15,15V158z"/>
	<rect x="948.872" y="120.631" fill="none" width="54" height="40.678"/>
	<text transform="matrix(1 0 0 1 963.7109 144.0605)" font-family="'MyriadPro-Regular'" font-size="33">@</text>
</g>
<polygon points="19.242,36.354 0,23.295 0,49.412 "/>
<polygon points="38.242,36.354 19,23.295 19,49.412 "/>
<polygon points="1493.758,36.353 1513,49.411 1513,23.294 "/>
<polygon points="1490.242,36.353 1471,23.294 1471,49.411 "/>
<g>
	<path fill="none" stroke="#000000" stroke-miterlimit="10" d="M1214,37h-27.128c-11,0-20.372,8.5-20.372,19.5v60
		c0,11-5.365,20.5-12.378,20.5S1141,137,1141,137"/>
</g>
<g>
	<path fill="#F6DB4D" stroke="#020000" stroke-miterlimit="10" d="M338.5,58c0,8.284-6.716,15-15,15h-24c-8.284,0-15-6.716-15-15V15
		c0-8.284,6.716-15,15-15h24c8.284,0,15,6.716,15,15V58z"/>
	<rect x="284.872" y="20.631" fill="none" width="54" height="40.678"/>
	<text transform="matrix(1 0 0 1 308.4565 44.0605)" font-family="'MyriadPro-Regular'" font-size="33">:</text>
</g>
</svg>
